<svg xmlns="http://www.w3.org/2000/svg" version="1.1" xmlns:xlink="http://www.w3.org/1999/xlink" xmlns:svgjs="http://svgjs.dev/svgjs" width="2000" height="2110" viewBox="0 0 2000 2110"><g transform="matrix(1,0,0,1,-2.183586626139686,-3.403225806451701)"><svg viewBox="0 0 235 248" data-background-color="#6936f5" preserveAspectRatio="xMidYMid meet" height="2110" width="2000" xmlns="http://www.w3.org/2000/svg" xmlns:xlink="http://www.w3.org/1999/xlink"><g id="tight-bounds" transform="matrix(1,0,0,1,0.25657142857141935,0.4000000000000057)"><svg viewBox="0 0 234.48685714285713 247.2" height="247.2" width="234.48685714285713"><g><svg viewBox="0 0 234.48685714285713 247.2" height="247.2" width="234.48685714285713"><g><svg viewBox="0 0 234.48685714285713 247.2" height="247.2" width="234.48685714285713"><g id="textblocktransform"><svg viewBox="0 0 234.48685714285713 247.2" height="247.2" width="234.48685714285713" id="textblock"><g><svg viewBox="0 0 234.48685714285713 247.2" height="247.2" width="234.48685714285713"><g transform="matrix(1,0,0,1,0,0)"><svg width="234.48685714285713" viewBox="0.7 -35 33.199999999999996 35" height="247.2" data-palette-color="#ffffff"><g class="wordmark-text-0" data-fill-palette-color="primary" id="text-0"><path d="M6.1 0L1.75 0Q1.35 0 1.03-0.3 0.7-0.6 0.7-1.05L0.7-1.05Q0.7-1.25 0.8-1.5L0.8-1.5 12.85-33.75Q13-34.25 13.43-34.63 13.85-35 14.6-35L14.6-35 20.05-35Q20.8-35 21.2-34.63 21.6-34.25 21.8-33.75L21.8-33.75 33.85-1.5Q33.9-1.25 33.9-1.05L33.9-1.05Q33.9-0.6 33.6-0.3 33.3 0 32.9 0L32.9 0 28.55 0Q27.85 0 27.53-0.33 27.2-0.65 27.1-0.95L27.1-0.95 24.75-7.05 9.9-7.05 7.55-0.95Q7.45-0.65 7.13-0.33 6.8 0 6.1 0L6.1 0ZM17.3-28.25L11.65-12.8 23-12.8 17.3-28.25Z" fill="#000000" data-fill-palette-color="primary"></path></g></svg></g></svg></g></svg></g></svg></g><g></g></svg></g><defs></defs></svg><rect width="234.48685714285713" height="247.2" fill="none" stroke="none" visibility="hidden"></rect></g></svg></g></svg>